# xmcd CD database file
#
# Track frame offsets:
#	150
#	19607
#	40285
#	62712
#	79632
#	104339
#	123790
#
# Disc length: 1994 seconds
#
# Revision: 1
# Processed by: cddbd v1.5PL3 Copyright (c) Steve Scherf et al.
# Submitted via: CDex 1.50
#
DISCID=4d07c807
DTITLE=leahsiegel - leah siegel presents
DYEAR=1993
DGENRE=Jazz
TTITLE0=walking in circles
TTITLE1=shadow
TTITLE2=red shoes
TTITLE3=the grandma song
TTITLE4=i found a reason
TTITLE5=how do you take it
TTITLE6=the early morning hour
EXTD=YEAR: 1993
EXTT0=
EXTT1=
EXTT2=
EXTT3=
EXTT4=
EXTT5=
EXTT6=
PLAYORDER=
